<svg xmlns="http://www.w3.org/2000/svg" xmlns:xlink="http://www.w3.org/1999/xlink" width="318.992" height="129" viewBox="0 0 318.992 129">
  <defs>
    <linearGradient id="linear-gradient" y1="0.5" x2="1" y2="0.5" gradientUnits="objectBoundingBox">
      <stop offset="0" stop-color="#73b541"/>
      <stop offset="0.143" stop-color="#66b13e"/>
      <stop offset="0.404" stop-color="#45a839"/>
      <stop offset="0.494" stop-color="#38a537"/>
      <stop offset="0.658" stop-color="#4fab3b"/>
      <stop offset="0.871" stop-color="#69b23f"/>
      <stop offset="1" stop-color="#73b541"/>
    </linearGradient>
    <filter id="Caminho_615" x="0" y="0" width="128.397" height="129" filterUnits="userSpaceOnUse">
      <feOffset dy="8" input="SourceAlpha"/>
      <feGaussianBlur stdDeviation="6.5" result="blur"/>
      <feFlood flood-opacity="0.51"/>
      <feComposite operator="in" in2="blur"/>
      <feComposite in="SourceGraphic"/>
    </filter>
    <linearGradient id="linear-gradient-2" x1="0.5" y1="1" x2="0.5" gradientUnits="objectBoundingBox">
      <stop offset="0" stop-color="#73b541"/>
      <stop offset="0.144" stop-color="#66b13e"/>
      <stop offset="0.409" stop-color="#45a839"/>
      <stop offset="0.5" stop-color="#38a537"/>
      <stop offset="0.661" stop-color="#4fab3b"/>
      <stop offset="0.873" stop-color="#69b23f"/>
      <stop offset="1" stop-color="#73b541"/>
    </linearGradient>
  </defs>
  <g id="Grupo_575" data-name="Grupo 575" transform="translate(-137.89 -364)">
    <g id="Grupo_569" data-name="Grupo 569">
      <rect id="Retângulo_1089" data-name="Retângulo 1089" width="264.365" height="66.825" rx="33.413" transform="translate(192.518 385.74)" fill="url(#linear-gradient)"/>
      <g id="Grupo_568" data-name="Grupo 568">
        <g id="Grupo_567" data-name="Grupo 567">
          <g transform="matrix(1, 0, 0, 1, 137.89, 364)" filter="url(#Caminho_615)">
            <path id="Caminho_615-2" data-name="Caminho 615" d="M202.534,375.5a44.253,44.253,0,0,1,0,88.507,44.814,44.814,0,0,1-21.321-5.473L157.39,465.5l7.313-22.783s-6.408-10.841-6.408-22.963A44.24,44.24,0,0,1,202.534,375.5ZM239.7,419.754a37.167,37.167,0,0,0-74.334,0c0,12.017,7.252,22.044,7.252,22.044l-4.734,13.208,14.173-4.237s9.107,6.152,20.476,6.152A37.165,37.165,0,0,0,239.7,419.754Z" transform="translate(-137.89 -364)" fill="#fff"/>
          </g>
          <path id="Caminho_616" data-name="Caminho 616" d="M202.534,382.587a37.167,37.167,0,1,1,0,74.334c-11.369,0-20.476-6.152-20.476-6.152l-14.173,4.237,4.734-13.208s-7.252-10.027-7.252-22.044A37.165,37.165,0,0,1,202.534,382.587Z" fill="url(#linear-gradient-2)"/>
        </g>
        <path id="Caminho_617" data-name="Caminho 617" d="M185.867,401.2a5.192,5.192,0,0,1,1.819-.758h3.486a1.982,1.982,0,0,1,1.364,1.136c.43.974,3.368,7.88,3.587,8.413a2.91,2.91,0,0,1-.126,3.031c-.915,1.181-2.829,3.385-2.829,3.385a1.362,1.362,0,0,0-.1,1.768,35.354,35.354,0,0,0,5.987,7.377,28.512,28.512,0,0,0,8.563,5.3c1.845.607,2.249-.2,2.956-1.111s2.9-3.688,2.9-3.688a1.739,1.739,0,0,1,2.248-.429c1.491.681,8.74,4.193,8.74,4.193a1.179,1.179,0,0,1,.935,1.137,7.928,7.928,0,0,1-1.97,6.769c-2.628,2.837-8.216,4.149-10.862,3.41s-11.394-3.029-17.1-8.349-10.325-10.921-12.215-15.051-1.785-6.581-1.681-7.736S182.286,403.5,185.867,401.2Z" fill="#fff"/>
      </g>
    </g>
    <g id="Grupo_572" data-name="Grupo 572">
      <g id="Grupo_570" data-name="Grupo 570">
        <path id="Caminho_618" data-name="Caminho 618" d="M288.762,427.681l-.561,2.786-.559-2.932-2.8-13.491h-5.406l-2.662,13.573-.516,2.792-.519-2.874-3.11-13.49h-5.514l6.708,23.659H278.6l2.846-13.78.668-3.66.668,3.663,2.845,13.777h4.919l6.656-23.659h-5.3Z" transform="translate(0 0)" fill="#fff"/>
        <path id="Caminho_619" data-name="Caminho 619" d="M317.011,421.991a5.248,5.248,0,0,0-2.2-1.748,7.49,7.49,0,0,0-2.955-.568,6.568,6.568,0,0,0-2.771.608,5.412,5.412,0,0,0-2.038,1.737v-7.888h-4.83v23.58h4.83V428.2a5.385,5.385,0,0,1,.887-3.32,3.054,3.054,0,0,1,2.57-1.136,2.2,2.2,0,0,1,2.189,1.123,4.533,4.533,0,0,1,.452,2.175v10.669h4.924v-10.3a24.843,24.843,0,0,0-.159-3.36A4.7,4.7,0,0,0,317.011,421.991Z" transform="translate(-3.513 -0.009)" fill="#fff"/>
        <path id="Caminho_620" data-name="Caminho 620" d="M337.918,436.9a2.284,2.284,0,0,1-.24-1.117c-.021-.767-.031-1.436-.031-1.992v-7.917c0-2.134-.773-3.61-2.3-4.385a11.222,11.222,0,0,0-5.13-1.141c-2.953,0-5.071.787-6.3,2.342a6.778,6.778,0,0,0-1.3,3.808l-.011.168h4.658l.022-.133a3.115,3.115,0,0,1,.607-1.506,2.747,2.747,0,0,1,2.175-.736,4.586,4.586,0,0,1,2.115.385,1.36,1.36,0,0,1,.664,1.326,1.205,1.205,0,0,1-.878,1.137,7,7,0,0,1-1.758.383l-1.548.191a11.238,11.238,0,0,0-4.048,1.129,5.081,5.081,0,0,0-2.552,4.745,4.932,4.932,0,0,0,1.591,3.912,5.9,5.9,0,0,0,4,1.377,6.728,6.728,0,0,0,3.393-.86,9.55,9.55,0,0,0,1.962-1.5c.027.259.059.5.1.714a5.094,5.094,0,0,0,.294,1.012l.04.1h5.175v-.924l-.092-.043A1.459,1.459,0,0,1,337.918,436.9Zm-5.086-6.838v1.4a3.49,3.49,0,0,1-1.226,2.992,4.582,4.582,0,0,1-2.636.828,2.332,2.332,0,0,1-1.486-.481,1.864,1.864,0,0,1-.591-1.547,1.9,1.9,0,0,1,.987-1.779,6.678,6.678,0,0,1,2.024-.6l1.028-.19a7.45,7.45,0,0,0,1.238-.317A5.125,5.125,0,0,0,332.831,430.06Z" transform="translate(-5.499 -0.631)" fill="#fff"/>
        <path id="Caminho_621" data-name="Caminho 621" d="M347.8,415.629h-4.783v4.814h-2.406v3.531h2.406v10.468a3.462,3.462,0,0,0,.8,2.5c.743.774,2.078,1.166,3.966,1.166q.255,0,.525-.009l2.29-.085v-3.7l-.17.012c-.146.011-.293.019-.445.023s-.3.008-.43.008c-1.185,0-1.47-.151-1.537-.217s-.22-.343-.22-1.209v-8.963h2.8v-3.531h-2.8Z" transform="translate(-7.355 -0.159)" fill="#fff"/>
        <path id="Caminho_622" data-name="Caminho 622" d="M363.162,427.625a29.159,29.159,0,0,1-4.673-1.237,1.022,1.022,0,0,1-.581-.984,1.163,1.163,0,0,1,.562-.949,3.537,3.537,0,0,1,2.01-.428,2.975,2.975,0,0,1,2.416.858,2.533,2.533,0,0,1,.459,1.3l.015.14H368.2l-.016-.173a5.7,5.7,0,0,0-2.414-4.577,9.929,9.929,0,0,0-5.361-1.315,7.754,7.754,0,0,0-5.4,1.759,5.556,5.556,0,0,0-1.931,4.226,4.113,4.113,0,0,0,1.255,3.221,9.984,9.984,0,0,0,4.215,1.858,26.24,26.24,0,0,1,4.674,1.343,1.168,1.168,0,0,1-.14,2.068,4.649,4.649,0,0,1-2.053.379,4.093,4.093,0,0,1-3-.853,2.877,2.877,0,0,1-.579-1.621l-.016-.139h-4.876v.158a5.761,5.761,0,0,0,2,4.5c1.319,1.166,3.38,1.758,6.127,1.758,2.692,0,4.715-.559,6.012-1.661a5.413,5.413,0,0,0,1.968-4.309,4.524,4.524,0,0,0-1.38-3.361A8.823,8.823,0,0,0,363.162,427.625Z" transform="translate(-8.551 -0.622)" fill="#fff"/>
        <path id="Caminho_623" data-name="Caminho 623" d="M385.643,414.045H379.9L371.455,437.7H376.9l1.583-4.8h8.366l1.541,4.8h5.628L385.68,414.15Zm-.192,14.521H379.91l2.809-8.514Z" transform="translate(-10.443)" fill="#fff"/>
        <path id="Caminho_624" data-name="Caminho 624" d="M407.667,420.38a5.949,5.949,0,0,0-3.7,1.19,6.964,6.964,0,0,0-1.306,1.389v-2.2h-4.64v24.371H402.8v-8.647a6.21,6.21,0,0,0,1.213,1.283,5.751,5.751,0,0,0,3.538,1.061,6.881,6.881,0,0,0,5.435-2.446c1.394-1.616,2.1-3.989,2.1-7.055,0-2.91-.725-5.153-2.155-6.665A7.008,7.008,0,0,0,407.667,420.38Zm2.453,9.168a6.621,6.621,0,0,1-.972,3.79,3.127,3.127,0,0,1-2.774,1.389,3.571,3.571,0,0,1-2.177-.68c-1.029-.778-1.551-2.158-1.551-4.1a8.647,8.647,0,0,1,.468-3.078,3.224,3.224,0,0,1,3.261-2.227,3.039,3.039,0,0,1,2.847,1.459A6.611,6.611,0,0,1,410.12,429.548Z" transform="translate(-13.102 -0.634)" fill="#fff"/>
        <path id="Caminho_625" data-name="Caminho 625" d="M434.123,422.662a7.008,7.008,0,0,0-5.271-2.282,5.949,5.949,0,0,0-3.7,1.19,6.964,6.964,0,0,0-1.306,1.389v-2.2h-4.64v24.371h4.782v-8.647a6.21,6.21,0,0,0,1.213,1.283,5.751,5.751,0,0,0,3.538,1.061,6.881,6.881,0,0,0,5.435-2.446c1.394-1.616,2.1-3.989,2.1-7.055C436.278,426.417,435.553,424.174,434.123,422.662Zm-2.817,6.886a6.621,6.621,0,0,1-.973,3.79,3.128,3.128,0,0,1-2.774,1.389,3.566,3.566,0,0,1-2.176-.68c-1.03-.778-1.551-2.158-1.551-4.1a8.648,8.648,0,0,1,.468-3.078,3.224,3.224,0,0,1,3.261-2.227,3.039,3.039,0,0,1,2.847,1.459A6.612,6.612,0,0,1,431.306,429.548Z" transform="translate(-15.222 -0.634)" fill="#fff"/>
      </g>
      <g id="Grupo_571" data-name="Grupo 571">
        <path id="Caminho_626" data-name="Caminho 626" d="M275.26,406.994l-.865-2.432h-4.927l-.865,2.432h-1.487l4.031-11.088h1.6l4.016,11.088Zm-5.376-3.584h4.1l-2.047-5.728Z" fill="#fff"/>
        <path id="Caminho_627" data-name="Caminho 627" d="M281.547,405.81h1.2v1.184h-1.472a2.008,2.008,0,0,1-2.288-2.256v-5.344h-1.136V398.21h1.136v-2.176h1.472v2.176h2.272v1.184h-2.272v5.344a1.157,1.157,0,0,0,.24.832A1.185,1.185,0,0,0,281.547,405.81Z" fill="#fff"/>
        <path id="Caminho_628" data-name="Caminho 628" d="M288.027,407.138a4.042,4.042,0,0,1-3.071-1.248,4.59,4.59,0,0,1-1.185-3.3,4.525,4.525,0,0,1,1.2-3.288,4.561,4.561,0,0,1,6.183-.064,4.091,4.091,0,0,1,1.161,3,5.421,5.421,0,0,1-.065.864h-6.992a3.022,3.022,0,0,0,.824,2.072,2.632,2.632,0,0,0,1.944.76,2.721,2.721,0,0,0,1.513-.4,2.382,2.382,0,0,0,.9-1.056h1.568a4.028,4.028,0,0,1-1.431,1.9A4.173,4.173,0,0,1,288.027,407.138ZM290,400.026a2.688,2.688,0,0,0-1.945-.76,2.66,2.66,0,0,0-1.928.744,2.981,2.981,0,0,0-.848,2.04h5.52A2.742,2.742,0,0,0,290,400.026Z" fill="#fff"/>
        <path id="Caminho_629" data-name="Caminho 629" d="M295.58,398.21v1.424a3.052,3.052,0,0,1,2.863-1.568,3.316,3.316,0,0,1,2.432.968,3.717,3.717,0,0,1,.976,2.76v5.2h-1.439v-4.96a2.859,2.859,0,0,0-.641-2.016A2.3,2.3,0,0,0,298,399.33a2.326,2.326,0,0,0-1.776.688,2.837,2.837,0,0,0-.647,2.016v4.96h-1.457V398.21Z" fill="#fff"/>
        <path id="Caminho_630" data-name="Caminho 630" d="M304.8,405.85a4.646,4.646,0,0,1-1.2-3.3,4.492,4.492,0,0,1,1.193-3.248,3.983,3.983,0,0,1,3-1.24,3.609,3.609,0,0,1,1.96.528,3.468,3.468,0,0,1,1.271,1.376v-4.816h1.472v11.84h-1.472V405.2a3.491,3.491,0,0,1-1.271,1.4,3.571,3.571,0,0,1-1.96.536A3.92,3.92,0,0,1,304.8,405.85Zm5.352-.856a3.695,3.695,0,0,0,0-4.768,2.819,2.819,0,0,0-2.1-.9,2.868,2.868,0,0,0-2.1.864,3.156,3.156,0,0,0-.873,2.352,3.365,3.365,0,0,0,.88,2.416,2.856,2.856,0,0,0,4.184.032Z" fill="#fff"/>
        <path id="Caminho_631" data-name="Caminho 631" d="M316.331,396.514a.959.959,0,0,1-.7.288.93.93,0,0,1-.7-.288.975.975,0,0,1-.28-.7.958.958,0,0,1,.288-.7.985.985,0,0,1,1.392,0,1,1,0,0,1,0,1.408Zm-1.44,10.48V398.21h1.456v8.784Z" fill="#fff"/>
        <path id="Caminho_632" data-name="Caminho 632" d="M320.2,398.21v1.424a3.052,3.052,0,0,1,2.863-1.568,3.486,3.486,0,0,1,1.824.488,3.06,3.06,0,0,1,1.232,1.416,3.6,3.6,0,0,1,1.3-1.4,3.532,3.532,0,0,1,1.88-.5,3.355,3.355,0,0,1,2.464.968,3.721,3.721,0,0,1,.977,2.76v5.2h-1.441v-4.96a2.841,2.841,0,0,0-.647-2.016,2.617,2.617,0,0,0-3.537,0,2.837,2.837,0,0,0-.648,2.016v4.96h-1.439v-4.96a2.859,2.859,0,0,0-.641-2.016,2.3,2.3,0,0,0-1.768-.688,2.326,2.326,0,0,0-1.776.688,2.837,2.837,0,0,0-.647,2.016v4.96h-1.456V398.21Z" fill="#fff"/>
        <path id="Caminho_633" data-name="Caminho 633" d="M338.747,407.138a4.046,4.046,0,0,1-3.073-1.248,4.593,4.593,0,0,1-1.183-3.3,4.529,4.529,0,0,1,1.2-3.288,4.561,4.561,0,0,1,6.183-.064,4.091,4.091,0,0,1,1.161,3,5.421,5.421,0,0,1-.065.864h-6.991a3.017,3.017,0,0,0,.823,2.072,2.633,2.633,0,0,0,1.945.76,2.712,2.712,0,0,0,1.511-.4,2.386,2.386,0,0,0,.9-1.056h1.568a4.025,4.025,0,0,1-1.433,1.9A4.163,4.163,0,0,1,338.747,407.138Zm1.967-7.112a2.868,2.868,0,0,0-3.872-.016,2.98,2.98,0,0,0-.847,2.04h5.52A2.743,2.743,0,0,0,340.714,400.026Z" fill="#fff"/>
        <path id="Caminho_634" data-name="Caminho 634" d="M346.3,398.21v1.424a3.055,3.055,0,0,1,2.864-1.568,3.318,3.318,0,0,1,2.432.968,3.717,3.717,0,0,1,.976,2.76v5.2h-1.44v-4.96a2.863,2.863,0,0,0-.64-2.016,2.3,2.3,0,0,0-1.768-.688,2.324,2.324,0,0,0-1.776.688,2.837,2.837,0,0,0-.648,2.016v4.96h-1.456V398.21Z" fill="#fff"/>
        <path id="Caminho_635" data-name="Caminho 635" d="M357.771,405.81h1.2v1.184H357.5a2.008,2.008,0,0,1-2.288-2.256v-5.344h-1.135V398.21h1.135v-2.176h1.473v2.176h2.272v1.184h-2.272v5.344a1.157,1.157,0,0,0,.24.832A1.184,1.184,0,0,0,357.771,405.81Z" fill="#fff"/>
        <path id="Caminho_636" data-name="Caminho 636" d="M361.2,405.89a4.513,4.513,0,0,1-1.208-3.28,4.431,4.431,0,0,1,1.263-3.288,4.623,4.623,0,0,1,6.336,0,4.422,4.422,0,0,1,1.265,3.28,4.323,4.323,0,0,1-1.32,3.28,4.5,4.5,0,0,1-3.224,1.256A4.139,4.139,0,0,1,361.2,405.89Zm3.112.048a2.948,2.948,0,0,0,2.136-.888,3.287,3.287,0,0,0,.9-2.456,3.346,3.346,0,0,0-.864-2.448,2.841,2.841,0,0,0-2.105-.88,2.735,2.735,0,0,0-2.071.88,3.433,3.433,0,0,0-.832,2.456,3.514,3.514,0,0,0,.8,2.456A2.623,2.623,0,0,0,364.315,405.938Z" fill="#fff"/>
        <path id="Caminho_637" data-name="Caminho 637" d="M374.475,398.21h1.552l2.687,7.424,2.7-7.424h1.569l-3.441,8.784H377.9Z" fill="#fff"/>
        <path id="Caminho_638" data-name="Caminho 638" d="M385.818,396.514a.958.958,0,0,1-.7.288.931.931,0,0,1-.7-.288.975.975,0,0,1-.28-.7.983.983,0,0,1,.985-.992.948.948,0,0,1,.7.288,1,1,0,0,1,0,1.408Zm-1.44,10.48V398.21h1.456v8.784Z" fill="#fff"/>
        <path id="Caminho_639" data-name="Caminho 639" d="M388.859,405.85a4.642,4.642,0,0,1-1.2-3.3,4.491,4.491,0,0,1,1.192-3.248,3.983,3.983,0,0,1,3-1.24,3.609,3.609,0,0,1,1.96.528,3.461,3.461,0,0,1,1.271,1.376v-1.76h1.472v8.784h-1.472V405.2a3.484,3.484,0,0,1-1.271,1.4,3.571,3.571,0,0,1-1.96.536A3.919,3.919,0,0,1,388.859,405.85Zm5.351-.856a3.695,3.695,0,0,0,0-4.768,2.819,2.819,0,0,0-2.1-.9,2.869,2.869,0,0,0-2.1.864,3.159,3.159,0,0,0-.872,2.352,3.365,3.365,0,0,0,.88,2.416,2.854,2.854,0,0,0,4.183.032Z" fill="#fff"/>
      </g>
    </g>
    <g id="Grupo_574" data-name="Grupo 574">
      <g id="Grupo_573" data-name="Grupo 573">
        <path id="Caminho_640" data-name="Caminho 640" d="M268.748,467.289a5.846,5.846,0,0,1,0-8.1,5.53,5.53,0,0,1,4.016-1.592,5.847,5.847,0,0,1,3.08.817,4.833,4.833,0,0,1,1.991,2.351h-1.759a3.454,3.454,0,0,0-3.312-1.872,4.014,4.014,0,0,0-2.984,1.192,4.843,4.843,0,0,0,0,6.329,4,4,0,0,0,2.984,1.2,3.928,3.928,0,0,0,1.968-.489,3.363,3.363,0,0,0,1.344-1.4h1.759a4.829,4.829,0,0,1-1.991,2.353,5.846,5.846,0,0,1-3.08.815A5.513,5.513,0,0,1,268.748,467.289Z" fill="#3aa537"/>
        <path id="Caminho_641" data-name="Caminho 641" d="M280.124,468.793V456.954h1.456v11.839Z" fill="#3aa537"/>
        <path id="Caminho_642" data-name="Caminho 642" d="M285.419,458.313a.958.958,0,0,1-.7.288.931.931,0,0,1-.7-.288.973.973,0,0,1-.28-.7.983.983,0,0,1,.985-.992.944.944,0,0,1,.7.288,1,1,0,0,1,0,1.407Zm-1.44,10.48v-8.784h1.457v8.784Z" fill="#3aa537"/>
        <path id="Caminho_643" data-name="Caminho 643" d="M288.46,467.65a4.648,4.648,0,0,1-1.2-3.3,4.491,4.491,0,0,1,1.192-3.248,3.986,3.986,0,0,1,3-1.239,3.606,3.606,0,0,1,1.96.527,3.484,3.484,0,0,1,1.272,1.376v-1.76h1.471v12.945h-1.471V467a3.5,3.5,0,0,1-1.272,1.4,3.568,3.568,0,0,1-1.96.535A3.922,3.922,0,0,1,288.46,467.65Zm5.351-.857a3.69,3.69,0,0,0,0-4.767,2.816,2.816,0,0,0-2.1-.9,2.866,2.866,0,0,0-2.1.865,3.157,3.157,0,0,0-.872,2.351,3.365,3.365,0,0,0,.88,2.416,2.852,2.852,0,0,0,4.183.032Z" fill="#3aa537"/>
        <path id="Caminho_644" data-name="Caminho 644" d="M304.747,460.009H306.2v8.784h-1.456v-1.408a3.038,3.038,0,0,1-2.863,1.552,3.315,3.315,0,0,1-2.433-.968,3.694,3.694,0,0,1-.975-2.744v-5.216h1.439v4.977a2.847,2.847,0,0,0,.648,2.008,2.595,2.595,0,0,0,3.537,0,2.847,2.847,0,0,0,.647-2.008Z" fill="#3aa537"/>
        <path id="Caminho_645" data-name="Caminho 645" d="M312.283,468.937a4.046,4.046,0,0,1-3.072-1.247,4.594,4.594,0,0,1-1.184-3.3,4.533,4.533,0,0,1,1.2-3.288,4.565,4.565,0,0,1,6.184-.064,4.094,4.094,0,0,1,1.16,3,5.447,5.447,0,0,1-.064.865h-6.991a3.017,3.017,0,0,0,.823,2.071,2.633,2.633,0,0,0,1.944.761,2.713,2.713,0,0,0,1.512-.4,2.37,2.37,0,0,0,.9-1.055h1.569a4.034,4.034,0,0,1-1.433,1.9A4.166,4.166,0,0,1,312.283,468.937Zm1.968-7.111a2.87,2.87,0,0,0-3.872-.017,2.983,2.983,0,0,0-.848,2.04h5.521A2.743,2.743,0,0,0,314.251,461.826Z" fill="#3aa537"/>
        <path id="Caminho_646" data-name="Caminho 646" d="M323.8,467.65a4.648,4.648,0,0,1-1.2-3.3,4.492,4.492,0,0,1,1.193-3.248,3.986,3.986,0,0,1,3-1.239,3.608,3.608,0,0,1,1.96.527,3.481,3.481,0,0,1,1.271,1.376v-1.76H331.5v8.784h-1.472V467a3.494,3.494,0,0,1-1.271,1.4,3.571,3.571,0,0,1-1.96.535A3.92,3.92,0,0,1,323.8,467.65Zm5.351-.857a3.693,3.693,0,0,0,0-4.767,2.816,2.816,0,0,0-2.1-.9,2.866,2.866,0,0,0-2.1.865,3.157,3.157,0,0,0-.872,2.351,3.365,3.365,0,0,0,.88,2.416,2.852,2.852,0,0,0,4.183.032Z" fill="#3aa537"/>
        <path id="Caminho_647" data-name="Caminho 647" d="M334.523,467.65a4.652,4.652,0,0,1-1.2-3.3,4.492,4.492,0,0,1,1.193-3.248,3.986,3.986,0,0,1,3-1.239,3.608,3.608,0,0,1,1.96.527,3.481,3.481,0,0,1,1.271,1.376v-1.76h1.472v12.945h-1.472V467a3.494,3.494,0,0,1-1.271,1.4,3.571,3.571,0,0,1-1.96.535A3.922,3.922,0,0,1,334.523,467.65Zm5.352-.857a3.693,3.693,0,0,0,0-4.767,2.817,2.817,0,0,0-2.1-.9,2.866,2.866,0,0,0-2.1.865,3.157,3.157,0,0,0-.873,2.351,3.365,3.365,0,0,0,.88,2.416,2.853,2.853,0,0,0,4.184.032Z" fill="#3aa537"/>
        <path id="Caminho_648" data-name="Caminho 648" d="M350.811,460.009h1.456v8.784h-1.456v-1.408a3.039,3.039,0,0,1-2.864,1.552,3.312,3.312,0,0,1-2.432-.968,3.69,3.69,0,0,1-.976-2.744v-5.216h1.439v4.977a2.843,2.843,0,0,0,.649,2.008,2.593,2.593,0,0,0,3.536,0,2.842,2.842,0,0,0,.648-2.008Z" fill="#3aa537"/>
        <path id="Caminho_649" data-name="Caminho 649" d="M356.106,458.313a.955.955,0,0,1-.7.288.93.93,0,0,1-.7-.288.969.969,0,0,1-.28-.7.983.983,0,0,1,.984-.992.941.941,0,0,1,.695.288,1,1,0,0,1,0,1.407Zm-1.439,10.48v-8.784h1.456v8.784Z" fill="#3aa537"/>
      </g>
    </g>
  </g>
</svg>
