<svg xmlns="http://www.w3.org/2000/svg" width="143" height="143" viewBox="0 0 143 143">
  <g id="Grupo_847" data-name="Grupo 847" transform="translate(-788 -304)">
    <g id="icon_Grupo_de_Estudos" data-name="icon Grupo de Estudos" transform="translate(796.777 311.98)">
      <g id="Grupo_799" data-name="Grupo 799" transform="translate(40.255 7.02)">
        <g id="Grupo_797" data-name="Grupo 797" transform="translate(0 8.576)">
          <g id="Grupo_794" data-name="Grupo 794" transform="translate(12.824)">
            <path id="Caminho_914" data-name="Caminho 914" d="M39.381,31.506A9.868,9.868,0,0,1,29.77,21.418,9.868,9.868,0,0,1,39.381,11.33a9.868,9.868,0,0,1,9.611,10.088A9.855,9.855,0,0,1,39.381,31.506Zm0-16.655a6.366,6.366,0,0,0-6.109,6.586,6.378,6.378,0,0,0,6.109,6.586,6.366,6.366,0,0,0,6.109-6.586A6.353,6.353,0,0,0,39.381,14.852Z" transform="translate(-29.77 -11.33)" fill="#003da5"/>
          </g>
          <g id="Grupo_795" data-name="Grupo 795" transform="translate(0 5.213)">
            <path id="Caminho_915" data-name="Caminho 915" d="M34.7,44.911a1.781,1.781,0,0,1-1.393-.677L23.693,31.778a1.717,1.717,0,0,1-.239-1.711l5.253-13.292a1.865,1.865,0,0,1,.935-.975L33.98,13.95l1.373,3.223-3.661,1.552-4.636,11.68,7.979,10.347,1.592-1.094-4.6-8.4a1.763,1.763,0,0,1-.1-1.453l1.691-4.537,3.283,1.234-1.413,3.781,4.974,9.073a1.757,1.757,0,0,1-.537,2.288l-4.238,2.945A1.69,1.69,0,0,1,34.7,44.911Z" transform="translate(-23.325 -13.95)" fill="#003da5"/>
          </g>
          <g id="Grupo_796" data-name="Grupo 796" transform="translate(27.528 5.213)">
            <path id="Caminho_916" data-name="Caminho 916" d="M43.149,44.911a1.69,1.69,0,0,1-.995-.318l-4.238-2.945a1.753,1.753,0,0,1-.537-2.288l4.974-9.073-1.413-3.781,3.283-1.234,1.691,4.537a1.763,1.763,0,0,1-.1,1.453l-4.6,8.4,1.592,1.094L50.79,30.406l-4.636-11.68-3.661-1.552,1.373-3.223L48.2,15.8a1.672,1.672,0,0,1,.935.975l5.253,13.292a1.758,1.758,0,0,1-.239,1.711L44.542,44.235A1.753,1.753,0,0,1,43.149,44.911Z" transform="translate(-37.16 -13.95)" fill="#003da5"/>
          </g>
        </g>
        <g id="Grupo_798" data-name="Grupo 798" transform="translate(3.749)">
          <path id="Caminho_917" data-name="Caminho 917" d="M26.783,20.073,25.33,13.328A5.2,5.2,0,0,1,30.424,7.02H57.386a5.2,5.2,0,0,1,5.094,6.308l-1.453,6.745L57.6,19.337l1.453-6.745a1.762,1.762,0,0,0-.338-1.433,1.719,1.719,0,0,0-1.333-.637H30.424a1.707,1.707,0,0,0-1.671,2.069l1.453,6.745Z" transform="translate(-25.209 -7.02)" fill="#003da5"/>
        </g>
      </g>
      <g id="Grupo_805" data-name="Grupo 805" transform="translate(6.22 41.084)">
        <g id="Grupo_803" data-name="Grupo 803" transform="translate(8.576)">
          <g id="Grupo_800" data-name="Grupo 800" transform="translate(0 12.815)">
            <path id="Caminho_918" data-name="Caminho 918" d="M20.618,49.8A9.881,9.881,0,0,1,10.53,40.191,9.868,9.868,0,0,1,20.618,30.58a9.881,9.881,0,0,1,10.088,9.611A9.893,9.893,0,0,1,20.618,49.8Zm0-15.7a6.378,6.378,0,0,0-6.586,6.109,6.366,6.366,0,0,0,6.586,6.109A6.378,6.378,0,0,0,27.2,40.211,6.378,6.378,0,0,0,20.618,34.1Z" transform="translate(-10.53 -30.58)" fill="#003da5"/>
          </g>
          <g id="Grupo_801" data-name="Grupo 801" transform="translate(5.193 27.5)">
            <path id="Caminho_919" data-name="Caminho 919" d="M29.894,55.331a1.724,1.724,0,0,1-.637-.119L15.965,49.939A1.865,1.865,0,0,1,14.991,49L13.14,44.666l3.223-1.373,1.552,3.661L29.6,51.59l10.347-7.979-1.074-1.592-8.4,4.6a1.763,1.763,0,0,1-1.453.1l-4.537-1.691,1.234-3.283L29.5,43.153l9.073-4.974a1.757,1.757,0,0,1,2.288.537L43.8,42.954a1.734,1.734,0,0,1-.378,2.388L30.968,54.953A1.81,1.81,0,0,1,29.894,55.331Z" transform="translate(-13.14 -37.96)" fill="#003da5"/>
          </g>
          <g id="Grupo_802" data-name="Grupo 802" transform="translate(5.213)">
            <path id="Caminho_920" data-name="Caminho 920" d="M39.4,41.491a1.594,1.594,0,0,1-.836-.219L29.486,36.3l-3.781,1.413-1.234-3.283,4.537-1.691a1.763,1.763,0,0,1,1.453.1l8.4,4.6,1.094-1.592L29.606,27.861,17.925,32.5l-1.552,3.661L13.15,34.786,15,30.448a1.672,1.672,0,0,1,.975-.935L29.267,24.26a1.758,1.758,0,0,1,1.711.239l12.456,9.611a1.773,1.773,0,0,1,.378,2.388l-2.945,4.238A1.839,1.839,0,0,1,39.4,41.491Z" transform="translate(-13.15 -24.139)" fill="#003da5"/>
          </g>
        </g>
        <g id="Grupo_804" data-name="Grupo 804" transform="translate(0 3.74)">
          <path id="Caminho_921" data-name="Caminho 921" d="M11.413,63.409A5.195,5.195,0,0,1,6.22,58.2V31.234a5.2,5.2,0,0,1,6.308-5.094l6.745,1.453-.736,3.422-6.765-1.453a1.762,1.762,0,0,0-1.433.338A1.719,1.719,0,0,0,9.7,31.234V58.2a1.749,1.749,0,0,0,.637,1.333,1.693,1.693,0,0,0,1.433.338l6.745-1.453.736,3.422L12.508,63.29A5.12,5.12,0,0,1,11.413,63.409Z" transform="translate(-6.22 -26.019)" fill="#003da5"/>
        </g>
      </g>
      <g id="Grupo_811" data-name="Grupo 811" transform="translate(40.284 75.251)">
        <g id="Grupo_809" data-name="Grupo 809" transform="translate(0)">
          <g id="Grupo_806" data-name="Grupo 806" transform="translate(12.815 15.996)">
            <path id="Caminho_922" data-name="Caminho 922" d="M39.391,69.526a10.1,10.1,0,0,1,0-20.176,10.1,10.1,0,0,1,0,20.176Zm0-16.655a6.594,6.594,0,0,0,0,13.153,6.594,6.594,0,0,0,0-13.153Z" transform="translate(-29.78 -49.35)" fill="#003da5"/>
          </g>
          <g id="Grupo_807" data-name="Grupo 807" transform="translate(27.48)">
            <path id="Caminho_923" data-name="Caminho 923" d="M43.856,72.29l-1.373-3.223,3.661-1.552,4.636-11.7L42.8,45.468l-1.592,1.094,4.6,8.4a1.763,1.763,0,0,1,.1,1.453l-1.691,4.537-3.283-1.234,1.413-3.781-4.974-9.073a1.757,1.757,0,0,1,.537-2.288l4.238-2.945a1.734,1.734,0,0,1,2.388.378l9.611,12.456a1.717,1.717,0,0,1,.239,1.711L49.129,69.465a1.865,1.865,0,0,1-.935.975Z" transform="translate(-37.15 -41.311)" fill="#003da5"/>
          </g>
          <g id="Grupo_808" data-name="Grupo 808" transform="translate(0 0.014)">
            <path id="Caminho_924" data-name="Caminho 924" d="M33.986,72.283l-4.338-1.851a1.672,1.672,0,0,1-.935-.975L23.46,56.166a1.758,1.758,0,0,1,.239-1.711L33.309,42A1.776,1.776,0,0,1,35.7,41.62l4.238,2.945a1.753,1.753,0,0,1,.537,2.288L35.5,55.927l1.413,3.781-3.283,1.234L31.936,56.4a1.763,1.763,0,0,1,.1-1.453l4.6-8.4L35.04,45.461,27.061,55.808,31.7,67.488l3.661,1.552Z" transform="translate(-23.34 -41.318)" fill="#003da5"/>
          </g>
        </g>
        <g id="Grupo_810" data-name="Grupo 810" transform="translate(3.72 31.696)">
          <path id="Caminho_925" data-name="Caminho 925" d="M57.386,70.313H30.424a5.2,5.2,0,0,1-5.094-6.308l1.453-6.765,3.422.736-1.453,6.745a1.762,1.762,0,0,0,.338,1.433,1.719,1.719,0,0,0,1.333.637H57.386a1.749,1.749,0,0,0,1.333-.637,1.693,1.693,0,0,0,.338-1.433L57.6,57.976l3.422-.736,1.453,6.745a5.223,5.223,0,0,1-5.094,6.328Z" transform="translate(-25.209 -57.24)" fill="#003da5"/>
        </g>
      </g>
      <g id="Grupo_817" data-name="Grupo 817" transform="translate(74.446 41.075)">
        <g id="Grupo_815" data-name="Grupo 815">
          <g id="Grupo_812" data-name="Grupo 812" transform="translate(15.982 12.824)">
            <path id="Caminho_926" data-name="Caminho 926" d="M58.628,49.8A9.881,9.881,0,0,1,48.54,40.191a10.1,10.1,0,0,1,20.176,0A9.868,9.868,0,0,1,58.628,49.8Zm0-15.719a6.36,6.36,0,0,0-6.566,6.109,6.594,6.594,0,0,0,13.152,0A6.366,6.366,0,0,0,58.628,34.082Z" transform="translate(-48.54 -30.58)" fill="#003da5"/>
          </g>
          <g id="Grupo_813" data-name="Grupo 813" transform="translate(0.006)">
            <path id="Caminho_927" data-name="Caminho 927" d="M45.205,41.5a1.715,1.715,0,0,1-1.433-.756L40.828,36.5a1.734,1.734,0,0,1,.378-2.388L53.662,24.5a1.717,1.717,0,0,1,1.711-.239l13.292,5.253a1.865,1.865,0,0,1,.975.935L71.49,34.79l-3.223,1.373L66.715,32.5l-11.68-4.636L44.688,35.845l1.094,1.592,8.4-4.6a1.768,1.768,0,0,1,1.453-.1l4.537,1.691-1.234,3.283L55.154,36.3l-9.073,4.974A2.033,2.033,0,0,1,45.205,41.5Z" transform="translate(-40.511 -24.135)" fill="#003da5"/>
          </g>
          <g id="Grupo_814" data-name="Grupo 814" transform="translate(0 27.517)">
            <path id="Caminho_928" data-name="Caminho 928" d="M54.719,55.307a1.788,1.788,0,0,1-1.074-.358L41.189,45.338a1.773,1.773,0,0,1-.378-2.388l2.945-4.238a1.774,1.774,0,0,1,2.288-.537l9.073,4.974L58.9,41.736l1.234,3.283-4.537,1.691a1.763,1.763,0,0,1-1.453-.1l-8.4-4.6-1.094,1.592L55,51.586l11.68-4.636,1.552-3.661,3.223,1.373L69.6,49a1.672,1.672,0,0,1-.975.935L55.336,55.187A1.55,1.55,0,0,1,54.719,55.307Z" transform="translate(-40.508 -37.964)" fill="#003da5"/>
          </g>
        </g>
        <g id="Grupo_816" data-name="Grupo 816" transform="translate(31.681 3.749)">
          <path id="Caminho_929" data-name="Caminho 929" d="M64.29,63.409a5.447,5.447,0,0,1-1.114-.119L56.43,61.837l.736-3.422,6.745,1.453a1.745,1.745,0,0,0,1.433-.338,1.719,1.719,0,0,0,.637-1.333V31.234a1.749,1.749,0,0,0-.637-1.333,1.678,1.678,0,0,0-1.433-.338l-6.745,1.453-.736-3.422,6.745-1.453a5.2,5.2,0,0,1,6.308,5.094V58.2a5.195,5.195,0,0,1-5.193,5.213Z" transform="translate(-56.43 -26.019)" fill="#003da5"/>
        </g>
      </g>
      <g id="Grupo_818" data-name="Grupo 818" transform="translate(39.051 57.819)">
        <path id="Caminho_930" data-name="Caminho 930" d="M23.377,43.832a23.861,23.861,0,0,1,.04-11.282l3.4.836a19.771,19.771,0,0,0-.577,4.855A21.139,21.139,0,0,0,26.8,43Z" transform="translate(-22.72 -32.55)" fill="#26baf5"/>
      </g>
      <g id="Grupo_819" data-name="Grupo 819" transform="translate(56.661 83.01)">
        <path id="Caminho_931" data-name="Caminho 931" d="M37.6,49.369a23.751,23.751,0,0,1-6.029-.776l.9-3.383a20.291,20.291,0,0,0,10.009.06l.836,3.4A23.744,23.744,0,0,1,37.6,49.369Z" transform="translate(-31.57 -45.21)" fill="#26baf5"/>
      </g>
      <g id="Grupo_820" data-name="Grupo 820" transform="translate(82.21 58.018)">
        <path id="Caminho_932" data-name="Caminho 932" d="M47.813,44.012l-3.4-.876a20.081,20.081,0,0,0,.617-4.994,20.559,20.559,0,0,0-.537-4.676l3.4-.816a24.053,24.053,0,0,1,.637,5.472A22.424,22.424,0,0,1,47.813,44.012Z" transform="translate(-44.41 -32.65)" fill="#26baf5"/>
      </g>
      <g id="Grupo_821" data-name="Grupo 821" transform="translate(56.94 39.866)">
        <path id="Caminho_933" data-name="Caminho 933" d="M32.566,27.631l-.856-3.4a23.842,23.842,0,0,1,11.481,0l-.836,3.4A20.367,20.367,0,0,0,32.566,27.631Z" transform="translate(-31.71 -23.528)" fill="#26baf5"/>
      </g>
    </g>
    <rect id="Retângulo_1286" data-name="Retângulo 1286" width="143" height="143" transform="translate(788 304)" fill="none"/>
  </g>
</svg>
