<svg xmlns="http://www.w3.org/2000/svg" width="143" height="143" viewBox="0 0 143 143">
  <g id="Grupo_845" data-name="Grupo 845" transform="translate(-378 -304)">
    <g id="icon_redes_sociais" data-name="icon redes sociais" transform="translate(388.262 308.54)">
      <g id="Grupo_781" data-name="Grupo 781" transform="translate(44.741 10.46)">
        <path id="Caminho_897" data-name="Caminho 897" d="M43.161,70.148a1.646,1.646,0,0,1-.566-.091,1.71,1.71,0,0,1-1.133-1.608V55.628H36.025a6.371,6.371,0,0,1-6.365-6.365V16.825a6.371,6.371,0,0,1,6.365-6.365H82.96a6.371,6.371,0,0,1,6.365,6.365V49.263a6.371,6.371,0,0,1-6.365,6.365H55.846L44.474,69.514A1.674,1.674,0,0,1,43.161,70.148ZM36.025,13.88a2.939,2.939,0,0,0-2.945,2.945V49.263a2.939,2.939,0,0,0,2.945,2.945h7.135a1.7,1.7,0,0,1,1.7,1.7v9.74l8.857-10.828a1.747,1.747,0,0,1,1.314-.634H82.937a2.939,2.939,0,0,0,2.945-2.945V16.825a2.939,2.939,0,0,0-2.945-2.945Z" transform="translate(-29.66 -10.46)" fill="#26baf5"/>
      </g>
      <g id="Grupo_782" data-name="Grupo 782" transform="translate(19.439 38.594)">
        <rect id="Retângulo_1278" data-name="Retângulo 1278" width="27.001" height="3.42" fill="#003da5"/>
      </g>
      <g id="Grupo_783" data-name="Grupo 783" transform="translate(19.439 104.262)">
        <rect id="Retângulo_1279" data-name="Retângulo 1279" width="54.002" height="3.42" fill="#003da5"/>
      </g>
      <g id="Grupo_784" data-name="Grupo 784" transform="translate(40.097 31.73)">
        <path id="Caminho_898" data-name="Caminho 898" d="M33.953,23.248H29.309a1.7,1.7,0,1,1,0-3.4h4.644a1.7,1.7,0,1,1,0,3.4Z" transform="translate(-27.61 -19.85)" fill="#003da5"/>
      </g>
      <g id="Grupo_785" data-name="Grupo 785" transform="translate(43.201 110.264)">
        <path id="Caminho_899" data-name="Caminho 899" d="M32.219,60.908a3.194,3.194,0,1,1,3.239-3.194A3.215,3.215,0,0,1,32.219,60.908Zm0-3.4a.232.232,0,1,0,.181.227A.224.224,0,0,0,32.219,57.51Z" transform="translate(-28.98 -54.52)" fill="#003da5"/>
      </g>
      <g id="Grupo_788" data-name="Grupo 788" transform="translate(58.536 18.909)">
        <g id="Grupo_786" data-name="Grupo 786">
          <path id="Caminho_900" data-name="Caminho 900" d="M45.853,42.165H38.989a3.239,3.239,0,0,1-3.239-3.239V28.3a3.239,3.239,0,0,1,3.239-3.239h6.864a3.336,3.336,0,0,1,1.2.2,16.544,16.544,0,0,0,2.356-6.343l.023-.181c.181-1.359.589-4.553,3.828-4.553h0c2.514,0,5.074,1.722,5.074,5.527q0,1.835-.136,3.262h4.644A4.8,4.8,0,0,1,66.557,24.5a6.024,6.024,0,0,1,1.155,4.938l-.023.091-1.427,8.291c-.861,3.738-3.556,3.715-6.682,3.67H48.888a4.727,4.727,0,0,1-.974-.091A3.084,3.084,0,0,1,45.853,42.165Zm-6.682-3.42H45.74l.566-1.7,1.722.793a2.116,2.116,0,0,0,.906.2H59.67c3.035.023,3.081,0,3.307-.974l1.4-8.109a3.015,3.015,0,0,0-.34-2.22,1.562,1.562,0,0,0-1.155-.385H54.143L54.6,24.27a22.2,22.2,0,0,0,.362-4.6c0-1.427-.544-2.129-1.654-2.129h-.091a5.848,5.848,0,0,0-.362,1.586l-.023.2a20.34,20.34,0,0,1-3.352,8.517,4.643,4.643,0,0,1-.34.43c-.068.091-.227.272-.272.34a1.458,1.458,0,0,0,.159-.68H45.6c0,.317.159.476.249.5h-6.7V38.745Z" transform="translate(-35.75 -14.19)" fill="#26baf5"/>
        </g>
        <g id="Grupo_787" data-name="Grupo 787" transform="translate(9.876 13.772)">
          <rect id="Retângulo_1280" data-name="Retângulo 1280" width="3.42" height="11.462" fill="#26baf5"/>
        </g>
      </g>
      <g id="Grupo_789" data-name="Grupo 789" transform="translate(17.74 25.274)">
        <path id="Caminho_901" data-name="Caminho 901" d="M67.914,114.743H24.966a7.411,7.411,0,0,1-7.226-7.566V24.566A7.411,7.411,0,0,1,24.966,17H46.44v3.42H24.966a4,4,0,0,0-3.828,4.145v82.612a4,4,0,0,0,3.828,4.145H67.914a4,4,0,0,0,3.828-4.145V45.655h3.42V107.2A7.41,7.41,0,0,1,67.914,114.743Z" transform="translate(-17.74 -17)" fill="#003da5"/>
      </g>
    </g>
    <rect id="Retângulo_1284" data-name="Retângulo 1284" width="143" height="143" transform="translate(378 304)" fill="none"/>
  </g>
</svg>
