<svg xmlns="http://www.w3.org/2000/svg" width="143" height="143" viewBox="0 0 143 143">
  <g id="Grupo_848" data-name="Grupo 848" transform="translate(-1018 -304)">
    <g id="icon_Proximidade_com_os_professores" data-name="icon Proximidade com os professores" transform="translate(1018.277 308.2)">
      <g id="Grupo_790" data-name="Grupo 790" transform="translate(6.72 13.8)">
        <path id="Caminho_907" data-name="Caminho 907" d="M31.375,45.013h4.858a7.284,7.284,0,0,0,7.275-7.275V29.165a7.284,7.284,0,0,0-7.275-7.275H31.375A7.284,7.284,0,0,0,24.1,29.165v8.572A7.284,7.284,0,0,0,31.375,45.013ZM27.529,29.165a3.851,3.851,0,0,1,3.847-3.846h4.858a3.851,3.851,0,0,1,3.847,3.846v8.572a3.851,3.851,0,0,1-3.847,3.846H31.375a3.851,3.851,0,0,1-3.847-3.846Z" transform="translate(14.101 -4.108)" fill="#26baf5"/>
        <path id="Caminho_908" data-name="Caminho 908" d="M133.742,73.41l-24.024-9.627a11.423,11.423,0,0,0,7.407-10.66V33.34a11.444,11.444,0,0,0-11.408-11.43h-3.165V19.427A5.638,5.638,0,0,0,96.926,13.8H12.347A5.638,5.638,0,0,0,6.72,19.427V80.883a5.638,5.638,0,0,0,5.627,5.627H66.44v15.826H48.724a13.442,13.442,0,0,0-13.43,13.43V117.5a1.717,1.717,0,0,0,1.714,1.714h45.3a1.717,1.717,0,0,0,1.714-1.714V84.839a1.714,1.714,0,0,0-3.429,0v30.97H38.7v-.022a10.033,10.033,0,0,1,10.023-10.023h19.43a1.717,1.717,0,0,0,1.714-1.714V76.135l4.2-1.692a1.7,1.7,0,0,0,.9-.352l22.178-8.9a9.939,9.939,0,0,1,3.451-.681h.066a8.945,8.945,0,0,1,3.451.681l27.277,10.946V117.5a1.714,1.714,0,1,0,3.429,0V74.992A1.712,1.712,0,0,0,133.742,73.41ZM75.627,70.157V69.7c-.945.352-1.978.506-2.9.857-.154.044-.286.11-.44.154v.813l-4.77,1.89a1.723,1.723,0,0,0-1.077,1.583v8.133H12.347a2.214,2.214,0,0,1-2.22-2.22V19.449a2.214,2.214,0,0,1,2.22-2.22H96.9a2.214,2.214,0,0,1,2.22,2.22v2.484H94.332a11.43,11.43,0,0,0-11.408,11.43V53.144A11.376,11.376,0,0,0,91.013,64Zm18.7-9.034a8,8,0,0,1-8-8V33.34a8,8,0,0,1,8-8h11.386a8.011,8.011,0,0,1,7.979,8V53.122a8,8,0,0,1-8,8Z" transform="translate(-6.72 -13.8)" fill="#003da5"/>
      </g>
      <path id="Caminho_909" data-name="Caminho 909" d="M56.29,48.987c3.868-1.473,5.8-2.242,5.8-2.264a8.566,8.566,0,0,0-1.165.4V41.25a1.735,1.735,0,0,0-.857-1.495L48.707,33.249a1.717,1.717,0,0,0-2.286.571L39.959,43.975,33.5,33.82a1.717,1.717,0,0,0-2.286-.571L19.847,39.755a1.735,1.735,0,0,0-.857,1.495V53.8a1.714,1.714,0,0,0,3.429,0V42.239l9.1-5.209,7.034,11.034A1.727,1.727,0,0,0,40,48.855a1.756,1.756,0,0,0,1.451-.791l7.034-11.034,9.1,5.209v6.242Z" transform="translate(14.699 23.038)" fill="#26baf5"/>
    </g>
    <rect id="Retângulo_1287" data-name="Retângulo 1287" width="143" height="143" transform="translate(1018 304)" fill="none"/>
  </g>
</svg>
