<svg xmlns="http://www.w3.org/2000/svg" width="143" height="143" viewBox="0 0 143 143">
  <g id="Grupo_850" data-name="Grupo 850" transform="translate(-1378 -304)">
    <g id="icon_Networking" data-name="icon Networking" transform="translate(1392.826 312.691)">
      <path id="Caminho_910" data-name="Caminho 910" d="M29.019,31.7l-8-4.944A7.035,7.035,0,1,0,18.81,30.32l7.907,4.888a35.513,35.513,0,0,0-3.378,27.249l4.133-1.321-.566-1.83h0a31.591,31.591,0,0,1-.66-6.4,31.229,31.229,0,0,1,22.117-29.7L49,23.093V18.658A35.273,35.273,0,0,0,29.019,31.7ZM16.583,26.49a2.82,2.82,0,0,1-1.566,1.189,2.869,2.869,0,0,1-2.321-.264,2.8,2.8,0,0,1-.906-3.869,2.834,2.834,0,0,1,2.4-1.34,2.486,2.486,0,0,1,1.472.415c1.359.944,1.283,1.868,1.283,1.925A2.7,2.7,0,0,1,16.583,26.49Z" transform="translate(0 10.335)" fill="#26baf5"/>
      <g id="Grupo_791" data-name="Grupo 791" transform="translate(31.963 84.851)">
        <path id="Caminho_911" data-name="Caminho 911" d="M47.673,68.254V61.479q1.812-.113,3.567-.4a34.821,34.821,0,0,0,19.531-10.19l-3.038-2.944Q67,48.713,66.2,49.421A30.486,30.486,0,0,1,50.56,56.913,30.916,30.916,0,0,1,24.877,49.4q-.793-.708-1.529-1.472L20.31,50.874a35.2,35.2,0,0,0,17.437,9.794,34.877,34.877,0,0,0,5.774.811v6.793a7.041,7.041,0,1,0,9.152,6.718A6.986,6.986,0,0,0,47.673,68.254ZM45.654,77.8a2.812,2.812,0,1,1,2.812-2.812A2.819,2.819,0,0,1,45.654,77.8Z" transform="translate(-20.31 -47.93)" fill="#26baf5"/>
      </g>
      <g id="Grupo_792" data-name="Grupo 792" transform="translate(65.628 28.314)">
        <path id="Caminho_912" data-name="Caminho 912" d="M78.8,21.574a7.053,7.053,0,0,0-6.152-3.6,7.129,7.129,0,0,0-3.434.906,6.944,6.944,0,0,0-3.34,4.227,7.047,7.047,0,0,0,.019,3.906l-8.039,4.51a35.242,35.242,0,0,0-19.7-12.851V23.1A30.479,30.479,0,0,1,59.984,59.014c-.132.642-.283,1.51-.472,2.132l4.057.887a34.907,34.907,0,0,0-3.378-27l8.058-4.51a7,7,0,0,0,7.813.623,6.944,6.944,0,0,0,3.34-4.227A6.776,6.776,0,0,0,78.8,21.574Zm-3.434,4.208a2.862,2.862,0,0,1-1.34,1.7,2.871,2.871,0,0,1-3.831-1.095,2.835,2.835,0,0,1-.359-1.585,2.818,2.818,0,0,1,2.812-2.6,2.8,2.8,0,0,1,2.717,3.585Z" transform="translate(-38.15 -17.97)" fill="#26baf5"/>
      </g>
      <g id="Grupo_793" data-name="Grupo 793" transform="translate(9.958 6.309)">
        <path id="Caminho_913" data-name="Caminho 913" d="M103.609,85.021a7.062,7.062,0,0,0-6.85-5.416,7.013,7.013,0,0,0-3.567.962l-12.417-7.68A28.688,28.688,0,0,0,82.228,63.9v-.623a27.141,27.141,0,0,0-7.3-18A26.039,26.039,0,0,0,58,36.976V20.03a7.038,7.038,0,1,0-6.208-.906,7.188,7.188,0,0,0,2.076.981V36.957A26.111,26.111,0,0,0,43.071,40.2a26.786,26.786,0,0,0-6.756,5.359A27.241,27.241,0,0,0,29.239,63.47V64A27.662,27.662,0,0,0,31.5,75L20.389,81.4a7.106,7.106,0,0,0-4.7-1.793,6.925,6.925,0,0,0-3.434.906,7.036,7.036,0,0,0,3.453,13.172,7.074,7.074,0,0,0,3.434-.906,7,7,0,0,0,3.34-4.227,6.724,6.724,0,0,0,.075-3.51l11.021-6.171a24.852,24.852,0,0,0,2.34,3.114,27.821,27.821,0,0,0,4.737,4.34c4.019,2.906,11.153,5.435,15.682,5.359a25.188,25.188,0,0,0,14.87-5.34,29.091,29.091,0,0,0,4.6-4.416,26.451,26.451,0,0,0,3.359-5.1l11.172,6.907a7.031,7.031,0,0,0,2.717,8.869,7.035,7.035,0,0,0,10.549-7.586ZM18.483,87.078a1.975,1.975,0,0,1-.075.321,2.82,2.82,0,0,1-5.171.623,2.813,2.813,0,0,1,1.076-3.831,2.731,2.731,0,0,1,1.378-.359,2.949,2.949,0,0,1,1.076.208,2.793,2.793,0,0,1,1.717,3.038ZM76.227,54.9a23.246,23.246,0,0,1,1.661,6.435H67.509a47.6,47.6,0,0,0-.717-6.435Zm-4.378-6.756A21.472,21.472,0,0,1,73.623,50.3H65.716c-.038-.132-.075-.264-.132-.415a30.278,30.278,0,0,0-3.623-7.907A22.074,22.074,0,0,1,71.849,48.147ZM50.091,72.377a43.438,43.438,0,0,1-.793-6.812h14a43.438,43.438,0,0,1-.793,6.812Zm11.36,4.133a21.881,21.881,0,0,1-5.133,9.115,21.9,21.9,0,0,1-5.152-9.115H61.451ZM49.336,61.338A44.429,44.429,0,0,1,50.11,54.9h12.4a46.169,46.169,0,0,1,.774,6.435Zm4.17-49.611a2.819,2.819,0,1,1,.7,3.925A2.832,2.832,0,0,1,53.507,11.727Zm2.812,29.929A21.323,21.323,0,0,1,61.3,50.3H51.337A21.112,21.112,0,0,1,56.319,41.656Zm-16.871,6.7a22.222,22.222,0,0,1,11.417-6.718,29.787,29.787,0,0,0-3.85,8.247,3.522,3.522,0,0,1-.132.415H37.844C38.354,49.619,38.882,48.978,39.448,48.355ZM35.278,54.9H45.826a50.459,50.459,0,0,0-.717,6.435H33.6A22.632,22.632,0,0,1,35.278,54.9Zm-.226,17.474a22.621,22.621,0,0,1-1.529-6.812H45.09a46.217,46.217,0,0,0,.717,6.812ZM39.09,79.02a24.4,24.4,0,0,1-1.906-2.51h9.568A30.343,30.343,0,0,0,51.3,86.229,22.056,22.056,0,0,1,39.09,79.02Zm33.5-.208a22.232,22.232,0,0,1-11.039,7.1,31.269,31.269,0,0,0,4.321-9.417h8.454A26.526,26.526,0,0,1,72.585,78.812Zm3.85-6.435H66.83a46.49,46.49,0,0,0,.717-6.812H77.982A23.367,23.367,0,0,1,76.435,72.377Zm22.72,15.738a2.849,2.849,0,0,1-3.869.906A2.8,2.8,0,0,1,94.023,86a3.131,3.131,0,0,1,.359-.868,2.792,2.792,0,0,1,2.4-1.34,2.88,2.88,0,0,1,1.378.359c.038.019.057.038.094.057a2.792,2.792,0,0,1,1.264,1.755A2.856,2.856,0,0,1,99.155,88.116Z" transform="translate(-8.649 -6.309)" fill="#003da5"/>
      </g>
    </g>
    <rect id="Retângulo_1289" data-name="Retângulo 1289" width="143" height="143" transform="translate(1378 304)" fill="none"/>
  </g>
</svg>
