<svg xmlns="http://www.w3.org/2000/svg" width="143" height="143" viewBox="0 0 143 143">
  <g id="Grupo_846" data-name="Grupo 846" transform="translate(-578 -304)">
    <g id="icon_Aulas_Gravadas" data-name="icon Aulas Gravadas" transform="translate(596.5 314.18)">
      <path id="Caminho_902" data-name="Caminho 902" d="M60.264,31.731,48.449,24.969a1.486,1.486,0,0,0-1.966.478L39.5,36.417l-6.983-10.97a1.468,1.468,0,0,0-1.966-.478L18.735,31.731A1.459,1.459,0,0,0,18,33V46.046a1.47,1.47,0,1,0,2.94,0v-12.2L30.808,28.2l7.479,11.724a1.53,1.53,0,0,0,2.481,0L48.246,28.2l9.868,5.641v12.2a1.47,1.47,0,1,0,2.94,0V33A1.643,1.643,0,0,0,60.264,31.731Z" transform="translate(2.932 16.713)" fill="#26baf5"/>
      <path id="Caminho_903" data-name="Caminho 903" d="M31.62,34.322h5.053a7.242,7.242,0,0,0,7.24-7.24V18.17a7.254,7.254,0,0,0-7.24-7.24H31.62a7.254,7.254,0,0,0-7.24,7.24v8.912A7.254,7.254,0,0,0,31.62,34.322ZM27.3,18.17a4.325,4.325,0,0,1,4.318-4.318h5.053a4.313,4.313,0,0,1,4.318,4.318v8.912A4.313,4.313,0,0,1,36.673,31.4H31.62A4.325,4.325,0,0,1,27.3,27.082V18.17Z" transform="translate(8.275 5.118)" fill="#26baf5"/>
      <path id="Caminho_904" data-name="Caminho 904" d="M89.252,74.188l-8.343-19.5a1.518,1.518,0,0,0-.257-.4L70.344,43V14.78a9.968,9.968,0,0,0-9.96-9.96H24.46a9.968,9.968,0,0,0-9.96,9.96V85.306a9.968,9.968,0,0,0,9.96,9.96H55.845l5.164,11.393v8.692a1.47,1.47,0,1,0,2.94,0v-9a1.385,1.385,0,0,0-.129-.606L58.179,93.3,50.5,72.59a.334.334,0,0,1,.092-.386c1.047-.919,3.087-2.462,5.274-2.187a5.974,5.974,0,0,1,3.988,2.811,76.32,76.32,0,0,1,7.681,13.047,1.473,1.473,0,0,0,1.635.882,1.458,1.458,0,0,0,1.176-1.433V47.341l7.975,8.728L86.57,75.346a15.814,15.814,0,0,1,.753,10.235l-6.8,23.925a1.433,1.433,0,0,0-.055.4v5.439a1.47,1.47,0,1,0,2.94,0v-5.237l6.744-23.76A18.939,18.939,0,0,0,89.252,74.188ZM56.176,67.1c-3.271-.386-6.137,1.654-7.552,2.885a3.266,3.266,0,0,0-.9,3.62l6.946,18.725H24.46a7.031,7.031,0,0,1-7.02-7.02V14.78a7.031,7.031,0,0,1,7.02-7.02H60.384a7.031,7.031,0,0,1,7.02,7.02V79.2a91.218,91.218,0,0,0-5.182-8.067C60.513,68.712,58.473,67.353,56.176,67.1Z" transform="translate(0)" fill="#003ba9"/>
    </g>
    <rect id="Retângulo_1285" data-name="Retângulo 1285" width="143" height="143" transform="translate(578 304)" fill="none"/>
  </g>
</svg>
