<svg xmlns="http://www.w3.org/2000/svg" width="143" height="143" viewBox="0 0 143 143">
  <g id="Grupo_849" data-name="Grupo 849" transform="translate(-1198 -304)">
    <g id="icon_Cursos_com_certificado" data-name="icon Cursos com certificado" transform="translate(1212.359 308.39)">
      <path id="Caminho_934" data-name="Caminho 934" d="M64.946,97.761a.812.812,0,0,1-.218-.02,1.566,1.566,0,0,1-1.288-1.07l-2.4-7.153a1.6,1.6,0,0,1,.079-1.209,1.63,1.63,0,0,1,.911-.793,1.478,1.478,0,0,1,.515-.079,1.6,1.6,0,0,1,1.506,1.09l.852,2.536a.793.793,0,0,0,.654.535h.1a.791.791,0,0,0,.654-.357l2.061-3.091a1.618,1.618,0,0,1,1.328-.713,1.552,1.552,0,0,1,.515.079l2.12.713a1,1,0,0,0,.258.04.859.859,0,0,0,.594-.258.755.755,0,0,0,.139-.852l-4.022-9.392a.783.783,0,0,0-.713-.476h-.02a.808.808,0,0,0-.713.456,5.5,5.5,0,0,1-2.913,3.15,3.156,3.156,0,0,1-1.129.2,7.343,7.343,0,0,1-3.487-1.228.9.9,0,0,0-.4-.1,1.159,1.159,0,0,0-.258.04.8.8,0,0,0-.476.436L52.087,96.829a1.568,1.568,0,0,1-1.308.951h-.139a1.569,1.569,0,0,1-1.328-.713L45.548,91.42a.819.819,0,0,0-.654-.357,1.16,1.16,0,0,0-.258.04l-5.429,1.8a1.477,1.477,0,0,1-.515.079,1.562,1.562,0,0,1-1.169-.515,1.625,1.625,0,0,1-.3-1.7L43.9,75.172a.776.776,0,0,0-.04-.693.8.8,0,0,0-.575-.4c-1.585-.238-3.21-.575-4.2-1.981-1.05-1.506-.713-3.408-.416-5.092a6.835,6.835,0,0,0,.178-2.635,5.944,5.944,0,0,0-1.506-1.863C36.1,61.263,34.71,59.9,34.71,57.974s1.387-3.289,2.6-4.5a6.359,6.359,0,0,0,1.546-1.882,6.835,6.835,0,0,0-.178-2.635c-.3-1.684-.634-3.606.416-5.092,1.07-1.546,2.952-1.8,4.617-2.041a5.85,5.85,0,0,0,2.338-.575,6.28,6.28,0,0,0,1.268-2.16c.713-1.585,1.546-3.368,3.309-3.983a3.548,3.548,0,0,1,1.129-.178,8.006,8.006,0,0,1,3.725,1.347,5.809,5.809,0,0,0,2.3.991,5.9,5.9,0,0,0,2.3-.991A8.034,8.034,0,0,1,63.8,34.91a3.638,3.638,0,0,1,1.129.178c1.763.594,2.576,2.4,3.309,3.983a6.3,6.3,0,0,0,1.248,2.14,5.389,5.389,0,0,0,2.358.594c1.664.238,3.567.5,4.637,2.041,1.05,1.486.713,3.408.416,5.092a6.835,6.835,0,0,0-.178,2.635,5.81,5.81,0,0,0,1.526,1.863c1.229,1.248,2.615,2.635,2.615,4.537,0,1.922-1.387,3.289-2.6,4.5a6.108,6.108,0,0,0-1.546,1.9,6.737,6.737,0,0,0,.178,2.615c.3,1.7.634,3.626-.416,5.112-.971,1.407-2.6,1.744-4.2,1.981a.8.8,0,0,0-.575.4.78.78,0,0,0-.04.693l6.677,15.594a1.586,1.586,0,0,1-.3,1.7,1.562,1.562,0,0,1-1.169.515h0a1.368,1.368,0,0,1-.5-.079L70.95,91.1a1,1,0,0,0-.258-.04.746.746,0,0,0-.654.357l-3.765,5.647A1.6,1.6,0,0,1,64.946,97.761Zm-19.1-10.343a1.569,1.569,0,0,1,1.328.713l2.338,3.487a.791.791,0,0,0,.654.357h.079A.789.789,0,0,0,50.9,91.5l4.319-10.066a.8.8,0,0,0-.178-.892.852.852,0,0,0-.555-.218.651.651,0,0,0-.337.079,5.464,5.464,0,0,1-2.378.654,3.638,3.638,0,0,1-1.129-.178,5.442,5.442,0,0,1-2.913-3.15.808.808,0,0,0-.713-.456h-.02a.783.783,0,0,0-.713.476L42.259,87.14a.831.831,0,0,0,.139.852.859.859,0,0,0,.594.258,1.364,1.364,0,0,0,.258-.04l2.12-.713A1.7,1.7,0,0,1,45.846,87.418Zm6.043-49.3a.813.813,0,0,0-.614.277,9.671,9.671,0,0,0-1.07,1.981,8.393,8.393,0,0,1-2.239,3.368,7.976,7.976,0,0,1-3.824,1.209,5.488,5.488,0,0,0-2.338.594.881.881,0,0,0-.317.515,10.177,10.177,0,0,0,.3,2.338,9.338,9.338,0,0,1,.079,4.121,8.185,8.185,0,0,1-2.338,3.19c-1.07,1.07-1.546,1.625-1.664,2.12a.962.962,0,0,0,0,.337c.1.456.555.951,1.6,2l.04.04a8.358,8.358,0,0,1,2.338,3.21,9.343,9.343,0,0,1-.079,4.121,5.977,5.977,0,0,0-.159,2.615.763.763,0,0,0,.436.456,11.617,11.617,0,0,0,1.981.357l.1.02A7.976,7.976,0,0,1,47.946,72.2a8.559,8.559,0,0,1,2.219,3.349,9.552,9.552,0,0,0,1.07,1.981.812.812,0,0,0,.614.277.712.712,0,0,0,.218-.04,11.023,11.023,0,0,0,1.783-.872,8.012,8.012,0,0,1,3.864-1.387A8.22,8.22,0,0,1,61.578,76.9a9.027,9.027,0,0,0,1.8.872,1.023,1.023,0,0,0,.218.04.813.813,0,0,0,.614-.277,9.11,9.11,0,0,0,1.05-1.962A8.673,8.673,0,0,1,67.5,72.18a7.976,7.976,0,0,1,3.824-1.209,5.488,5.488,0,0,0,2.338-.594.791.791,0,0,0,.317-.535,9.722,9.722,0,0,0-.3-2.338,9.338,9.338,0,0,1-.079-4.121,8.509,8.509,0,0,1,2.338-3.21l.04-.04c.971-.971,1.466-1.526,1.585-2a.743.743,0,0,0,0-.416,6.247,6.247,0,0,0-1.625-2.041,8.4,8.4,0,0,1-2.338-3.21,8.791,8.791,0,0,1,.079-4.121,6.461,6.461,0,0,0,.178-2.615.857.857,0,0,0-.436-.476,10.023,10.023,0,0,0-1.981-.357l-.1-.02a7.976,7.976,0,0,1-3.824-1.209A8.559,8.559,0,0,1,65.3,40.319a11.619,11.619,0,0,0-1.07-2,.812.812,0,0,0-.614-.277.712.712,0,0,0-.218.04,9.82,9.82,0,0,0-1.763.852,8.4,8.4,0,0,1-3.9,1.407,8.2,8.2,0,0,1-3.864-1.387,9.027,9.027,0,0,0-1.8-.872C52.047,38.12,51.968,38.12,51.889,38.12Z" transform="translate(17.734 24.83)" fill="#26baf5"/>
      <path id="Caminho_935" data-name="Caminho 935" d="M53.053,66.786A13.533,13.533,0,1,1,66.586,53.253,13.551,13.551,0,0,1,53.053,66.786Zm0-23.876A10.343,10.343,0,1,0,63.4,53.253,10.35,10.35,0,0,0,53.053,42.91Z" transform="translate(22.455 29.551)" fill="#26baf5"/>
      <path id="Caminho_936" data-name="Caminho 936" d="M18.225,105.887A1.59,1.59,0,0,1,16.64,104.3V11.2A1.59,1.59,0,0,1,18.225,9.61h76.4A1.59,1.59,0,0,1,96.214,11.2v50.13a1.585,1.585,0,1,1-3.17,0V13.573a.8.8,0,0,0-.793-.793H20.6a.8.8,0,0,0-.793.793V101.9a.8.8,0,0,0,.793.793H51.632a1.585,1.585,0,0,1,0,3.17H18.225Z" transform="translate(0 0)" fill="#003da5"/>
      <path id="Caminho_937" data-name="Caminho 937" d="M31.386,95.172A1.59,1.59,0,0,1,29.8,93.586a7.979,7.979,0,0,0-7.965-7.965,1.59,1.59,0,0,1-1.585-1.585V24.356a1.59,1.59,0,0,1,1.585-1.585A7.978,7.978,0,0,0,29.8,14.805a1.59,1.59,0,0,1,1.585-1.585H74.363a1.59,1.59,0,0,1,1.585,1.585,7.978,7.978,0,0,0,7.965,7.965A1.59,1.59,0,0,1,85.5,24.356V53.007a1.585,1.585,0,1,1-3.17,0V26.5a.769.769,0,0,0-.634-.773A11.156,11.156,0,0,1,73,17.044a.784.784,0,0,0-.773-.634h-38.7a.769.769,0,0,0-.773.634,11.106,11.106,0,0,1-8.679,8.679.784.784,0,0,0-.634.773V81.876a.769.769,0,0,0,.634.773,11.1,11.1,0,0,1,8.679,8.7.784.784,0,0,0,.773.634H45.711a1.585,1.585,0,0,1,0,3.17H31.386Z" transform="translate(3.543 3.543)" fill="#003da5"/>
      <path id="Caminho_938" data-name="Caminho 938" d="M32.675,24.83a1.585,1.585,0,0,1,0-3.17H54.154a1.585,1.585,0,1,1,0,3.17Z" transform="translate(14.182 11.826)" fill="#003da5"/>
      <path id="Caminho_939" data-name="Caminho 939" d="M26.655,30.85a1.585,1.585,0,0,1,0-3.17H69.632a1.585,1.585,0,0,1,0,3.17Z" transform="translate(8.273 17.734)" fill="#003da5"/>
      <path id="Caminho_940" data-name="Caminho 940" d="M26.655,35.67a1.585,1.585,0,0,1,0-3.17H52.909a1.585,1.585,0,1,1,0,3.17Z" transform="translate(8.273 22.465)" fill="#003da5"/>
      <path id="Caminho_941" data-name="Caminho 941" d="M26.655,40.49a1.585,1.585,0,1,1,0-3.17H40.981a1.585,1.585,0,1,1,0,3.17Z" transform="translate(8.273 27.195)" fill="#003da5"/>
      <path id="Caminho_942" data-name="Caminho 942" d="M26.655,45.31a1.585,1.585,0,1,1,0-3.17H40.981a1.585,1.585,0,1,1,0,3.17Z" transform="translate(8.273 31.926)" fill="#003da5"/>
    </g>
    <rect id="Retângulo_1288" data-name="Retângulo 1288" width="143" height="143" transform="translate(1198 304)" fill="none"/>
  </g>
</svg>
